<svg xmlns="http://www.w3.org/2000/svg" xmlns:xlink="http://www.w3.org/1999/xlink" width="500" zoomAndPan="magnify" viewBox="0 0 375 374.999991" height="500" preserveAspectRatio="xMidYMid meet" version="1.0"><defs><g/><clipPath id="e9379fe82c"><path d="M 106.550781 154.414062 L 169.550781 154.414062 L 169.550781 200 L 106.550781 200 Z M 106.550781 154.414062 " clip-rule="nonzero"/></clipPath><clipPath id="7894c95a5c"><path d="M 151 196 L 169.550781 196 L 169.550781 210 L 151 210 Z M 151 196 " clip-rule="nonzero"/></clipPath><clipPath id="c8dfba45cd"><path d="M 106.550781 187 L 140 187 L 140 217 L 106.550781 217 Z M 106.550781 187 " clip-rule="nonzero"/></clipPath><clipPath id="e16a9b4a6b"><path d="M 136 188 L 168 188 L 168 218.914062 L 136 218.914062 Z M 136 188 " clip-rule="nonzero"/></clipPath></defs><rect x="-37.5" width="450" fill="#ffffff" y="-37.499999" height="449.999989" fill-opacity="1"/><rect x="-37.5" width="450" fill="#ffffff" y="-37.499999" height="449.999989" fill-opacity="1"/><rect x="-37.5" width="450" fill="#f5f5ef" y="-37.499999" height="449.999989" fill-opacity="1"/><g clip-path="url(#e9379fe82c)"><path fill="#304543" d="M 108.324219 177.617188 C 108.316406 177.660156 108.308594 177.703125 108.292969 177.746094 C 108.308594 177.703125 108.316406 177.660156 108.324219 177.617188 Z M 108.332031 177.566406 C 108.332031 177.644531 108.34375 177.910156 108.4375 178.269531 C 108.632812 178.996094 109.132812 179.652344 109.820312 180.070312 L 136.660156 196.328125 C 136.617188 196.066406 136.597656 195.796875 136.597656 195.519531 C 136.597656 192.902344 137.738281 191.09375 140.410156 189.472656 L 165.964844 173.988281 C 166.300781 173.785156 166.335938 173.445312 166.335938 173.308594 C 166.335938 173.171875 166.300781 172.835938 165.964844 172.628906 L 138.820312 156.179688 L 111.394531 172.800781 C 109.164062 174.152344 108.339844 175.421875 108.339844 177.480469 C 108.339844 177.507812 108.335938 177.535156 108.332031 177.566406 Z M 140.113281 199.746094 C 139.550781 199.746094 139.007812 199.597656 138.503906 199.292969 C 138.402344 199.230469 138.304688 199.164062 138.210938 199.089844 L 109.0625 181.4375 C 108.027344 180.808594 107.289062 179.832031 106.984375 178.691406 C 106.835938 178.125 106.804688 177.734375 106.832031 177.472656 C 106.835938 174.855469 107.972656 173.050781 110.640625 171.433594 L 138.445312 154.585938 C 138.675781 154.445312 138.964844 154.445312 139.195312 154.585938 L 166.714844 171.261719 C 167.421875 171.691406 167.839844 172.457031 167.839844 173.308594 C 167.839844 174.160156 167.421875 174.929688 166.714844 175.355469 L 141.164062 190.84375 C 138.933594 192.195312 138.105469 193.460938 138.105469 195.519531 C 138.105469 196.453125 138.472656 197.3125 139.058594 197.785156 C 139.070312 197.792969 139.085938 197.804688 139.101562 197.816406 C 139.148438 197.855469 139.203125 197.890625 139.257812 197.921875 C 139.855469 198.285156 140.5625 198.238281 141.304688 197.789062 L 167.152344 182.125 L 165.050781 180.691406 C 164.703125 180.453125 164.605469 179.964844 164.832031 179.597656 C 165.058594 179.234375 165.523438 179.128906 165.875 179.371094 L 169 181.507812 C 169.21875 181.65625 169.347656 181.914062 169.339844 182.1875 C 169.332031 182.460938 169.191406 182.714844 168.964844 182.851562 L 142.058594 199.15625 C 141.410156 199.550781 140.75 199.746094 140.113281 199.746094 " fill-opacity="1" fill-rule="nonzero"/></g><g clip-path="url(#7894c95a5c)"><path fill="#304543" d="M 152.691406 209.695312 C 152.429688 209.695312 152.175781 209.554688 152.039062 209.300781 C 151.832031 208.925781 151.953125 208.441406 152.3125 208.222656 L 167.152344 199.230469 L 165.050781 197.796875 C 164.703125 197.558594 164.605469 197.070312 164.832031 196.703125 C 165.058594 196.335938 165.523438 196.234375 165.875 196.472656 L 169 198.609375 C 169.21875 198.761719 169.347656 199.019531 169.339844 199.292969 C 169.332031 199.570312 169.191406 199.816406 168.964844 199.957031 L 153.066406 209.589844 C 152.945312 209.664062 152.816406 209.695312 152.691406 209.695312 " fill-opacity="1" fill-rule="nonzero"/></g><g clip-path="url(#c8dfba45cd)"><path fill="#304543" d="M 108.324219 194.722656 C 108.316406 194.765625 108.308594 194.808594 108.292969 194.847656 C 108.308594 194.808594 108.316406 194.765625 108.324219 194.722656 Z M 138.628906 216.328125 C 138.5 216.328125 138.371094 216.292969 138.25 216.222656 L 109.0625 198.542969 C 108.027344 197.914062 107.289062 196.9375 106.984375 195.796875 C 106.835938 195.226562 106.804688 194.839844 106.832031 194.578125 C 106.835938 191.96875 107.96875 190.164062 110.625 188.550781 L 111.890625 187.6875 C 112.238281 187.449219 112.703125 187.550781 112.933594 187.917969 C 113.15625 188.285156 113.058594 188.773438 112.710938 189.011719 L 111.429688 189.886719 C 111.417969 189.894531 111.40625 189.898438 111.394531 189.90625 C 109.164062 191.257812 108.339844 192.527344 108.339844 194.582031 C 108.339844 194.613281 108.335938 194.640625 108.332031 194.671875 C 108.332031 194.746094 108.34375 195.015625 108.4375 195.371094 C 108.632812 196.101562 109.132812 196.757812 109.820312 197.171875 L 139.007812 214.851562 C 139.367188 215.070312 139.488281 215.554688 139.28125 215.929688 C 139.144531 216.1875 138.886719 216.328125 138.628906 216.328125 " fill-opacity="1" fill-rule="nonzero"/></g><g clip-path="url(#e16a9b4a6b)"><path fill="#304543" d="M 147.550781 218.914062 C 147.421875 218.914062 147.292969 218.878906 147.179688 218.8125 C 146.945312 218.671875 146.796875 218.410156 146.796875 218.125 L 146.796875 213.425781 L 142.054688 216.265625 C 140.839844 217 139.578125 217.046875 138.503906 216.394531 C 137.332031 215.683594 136.597656 214.238281 136.597656 212.625 C 136.597656 210.003906 137.738281 208.195312 140.410156 206.578125 L 165.964844 191.089844 C 166.300781 190.886719 166.335938 190.550781 166.335938 190.414062 C 166.335938 190.277344 166.300781 189.9375 165.964844 189.734375 C 165.605469 189.515625 165.480469 189.03125 165.6875 188.65625 C 165.894531 188.277344 166.355469 188.148438 166.714844 188.363281 C 167.421875 188.792969 167.839844 189.558594 167.839844 190.414062 C 167.839844 191.265625 167.421875 192.03125 166.714844 192.460938 L 141.164062 207.949219 C 138.933594 209.296875 138.105469 210.566406 138.105469 212.625 C 138.105469 213.660156 138.554688 214.601562 139.257812 215.027344 C 139.855469 215.390625 140.5625 215.34375 141.304688 214.894531 L 147.175781 211.378906 C 147.410156 211.238281 147.695312 211.242188 147.929688 211.382812 C 148.160156 211.523438 148.304688 211.785156 148.304688 212.066406 L 148.304688 216.730469 L 151.9375 214.445312 L 151.9375 208.90625 C 151.9375 207.8125 151.371094 206.792969 150.464844 206.25 C 150.105469 206.03125 149.980469 205.550781 150.183594 205.171875 C 150.390625 204.792969 150.851562 204.660156 151.210938 204.875 C 152.585938 205.699219 153.441406 207.246094 153.441406 208.90625 L 153.441406 214.894531 C 153.441406 215.175781 153.304688 215.429688 153.074219 215.570312 L 147.9375 218.800781 C 147.816406 218.875 147.683594 218.914062 147.550781 218.914062 " fill-opacity="1" fill-rule="nonzero"/></g><path fill="#304543" d="M 134.121094 186.363281 C 133.996094 186.363281 133.871094 186.328125 133.757812 186.261719 L 110.652344 172.808594 C 110.289062 172.597656 110.15625 172.117188 110.359375 171.734375 C 110.558594 171.351562 111.019531 171.214844 111.382812 171.425781 L 134.484375 184.878906 C 134.847656 185.089844 134.980469 185.570312 134.777344 185.953125 C 134.640625 186.214844 134.382812 186.363281 134.121094 186.363281 " fill-opacity="1" fill-rule="nonzero"/><path fill="#0c9ea4" d="M 124.445312 167.628906 L 153.195312 167.628906 L 138.820312 158.917969 Z M 124.445312 167.628906 " fill-opacity="1" fill-rule="nonzero"/><g fill="#304543" fill-opacity="1"><g transform="translate(179.249993, 182.366467)"><g><path d="M 14.46875 -18.34375 L 14.46875 -20.746094 L 3.257812 -20.746094 L 3.257812 0 L 5.953125 0 L 5.953125 -9.179688 L 13.378906 -9.179688 L 13.378906 -11.566406 L 5.953125 -11.566406 L 5.953125 -18.34375 Z M 14.46875 -18.34375 "/></g></g></g><g fill="#304543" fill-opacity="1"><g transform="translate(194.909978, 182.366467)"><g><path d="M 16.578125 0 L 19.332031 0 L 11.683594 -20.746094 L 8.53125 -20.746094 L 0.882812 0 L 3.640625 0 L 5.40625 -4.964844 L 14.792969 -4.964844 Z M 6.246094 -7.292969 L 10.109375 -18.09375 L 13.96875 -7.292969 Z M 6.246094 -7.292969 "/></g></g></g><g fill="#304543" fill-opacity="1"><g transform="translate(215.122106, 182.366467)"><g><path d="M 14.101562 -20.746094 L 0.824219 -20.746094 L 0.824219 -18.34375 L 6.160156 -18.34375 L 6.160156 0 L 8.78125 0 L 8.78125 -18.34375 L 14.101562 -18.34375 Z M 14.101562 -20.746094 "/></g></g></g><g fill="#304543" fill-opacity="1"><g transform="translate(230.045498, 182.366467)"><g><path d="M 14.382812 -18.34375 L 14.382812 -20.746094 L 3.257812 -20.746094 L 3.257812 0 L 14.382812 0 L 14.382812 -2.402344 L 5.953125 -2.402344 L 5.953125 -9.179688 L 13.378906 -9.179688 L 13.378906 -11.550781 L 5.953125 -11.550781 L 5.953125 -18.34375 Z M 14.382812 -18.34375 "/></g></g></g><g fill="#304543" fill-opacity="1"><g transform="translate(246.221093, 182.366467)"><g><path d="M 12.140625 0.28125 C 16.238281 0.28125 19.6875 -1.738281 21.308594 -5.230469 L 18.875 -6.21875 C 17.609375 -3.65625 15.105469 -2.238281 12.140625 -2.238281 C 7.839844 -2.238281 4.433594 -5.1875 4.433594 -10.386719 C 4.433594 -15.558594 7.839844 -18.507812 12.140625 -18.507812 C 15.105469 -18.507812 17.609375 -17.078125 18.875 -14.515625 L 21.308594 -15.515625 C 19.6875 -18.992188 16.238281 -21.027344 12.140625 -21.027344 C 6.292969 -21.027344 1.8125 -17.003906 1.8125 -10.386719 C 1.8125 -3.742188 6.292969 0.28125 12.140625 0.28125 Z M 12.140625 0.28125 "/></g></g></g><g fill="#304543" fill-opacity="1"><g transform="translate(179.249993, 212.434212)"><g><path d="M 5.894531 -2.402344 L 5.894531 -20.746094 L 3.257812 -20.746094 L 3.257812 0 L 13.101562 0 L 13.101562 -2.402344 Z M 5.894531 -2.402344 "/></g></g></g><g fill="#304543" fill-opacity="1"><g transform="translate(193.186343, 212.434212)"><g><path d="M 3.257812 0 L 5.894531 0 L 5.894531 -20.746094 L 3.257812 -20.746094 Z M 3.257812 0 "/></g></g></g><g fill="#304543" fill-opacity="1"><g transform="translate(202.334841, 212.434212)"><g><path d="M 13.101562 -10.832031 C 14.765625 -11.625 15.679688 -13.261719 15.679688 -15.25 C 15.679688 -18.492188 13.246094 -20.746094 9.546875 -20.746094 L 3.257812 -20.746094 L 3.257812 0 L 11.332031 0 C 14.910156 0 17.195312 -2.328125 17.195312 -5.628906 C 17.195312 -8.488281 15.546875 -10.210938 13.101562 -10.832031 Z M 13.203125 -15.089844 C 13.203125 -13.203125 11.921875 -11.65625 10.019531 -11.65625 L 5.804688 -11.65625 L 5.804688 -18.433594 L 9.535156 -18.433594 C 11.832031 -18.433594 13.203125 -16.976562 13.203125 -15.089844 Z M 10.890625 -2.34375 L 5.804688 -2.34375 L 5.804688 -9.476562 L 10.699219 -9.476562 C 13.1875 -9.476562 14.632812 -7.914062 14.632812 -5.894531 C 14.632812 -3.976562 13.261719 -2.34375 10.890625 -2.34375 Z M 10.890625 -2.34375 "/></g></g></g><g fill="#304543" fill-opacity="1"><g transform="translate(221.176911, 212.434212)"><g><path d="M 17.5625 0 L 12.390625 -8.339844 C 13.453125 -8.589844 14.308594 -9.019531 15 -9.605469 C 16.414062 -10.699219 17.109375 -12.480469 17.109375 -14.71875 C 17.109375 -16.960938 16.371094 -18.550781 14.882812 -19.507812 C 13.675781 -20.347656 11.964844 -20.746094 9.636719 -20.746094 L 3.257812 -20.746094 L 3.257812 0 L 5.894531 0 L 5.894531 -8.058594 L 9.8125 -8.058594 L 14.484375 0 Z M 5.894531 -18.464844 L 9.296875 -18.464844 C 11.109375 -18.464844 12.421875 -18.273438 13.304688 -17.550781 C 14 -16.976562 14.410156 -16.03125 14.410156 -14.617188 C 14.410156 -13.144531 14.027344 -12.15625 13.351562 -11.492188 C 12.511719 -10.640625 11.15625 -10.359375 9.296875 -10.359375 L 5.894531 -10.359375 Z M 5.894531 -18.464844 "/></g></g></g><g fill="#304543" fill-opacity="1"><g transform="translate(240.372545, 212.434212)"><g><path d="M 16.578125 0 L 19.332031 0 L 11.683594 -20.746094 L 8.53125 -20.746094 L 0.882812 0 L 3.640625 0 L 5.40625 -4.964844 L 14.792969 -4.964844 Z M 6.246094 -7.292969 L 10.109375 -18.09375 L 13.96875 -7.292969 Z M 6.246094 -7.292969 "/></g></g></g><g fill="#304543" fill-opacity="1"><g transform="translate(260.584673, 212.434212)"><g><path d="M 17.5625 0 L 12.390625 -8.339844 C 13.453125 -8.589844 14.308594 -9.019531 15 -9.605469 C 16.414062 -10.699219 17.109375 -12.480469 17.109375 -14.71875 C 17.109375 -16.960938 16.371094 -18.550781 14.882812 -19.507812 C 13.675781 -20.347656 11.964844 -20.746094 9.636719 -20.746094 L 3.257812 -20.746094 L 3.257812 0 L 5.894531 0 L 5.894531 -8.058594 L 9.8125 -8.058594 L 14.484375 0 Z M 5.894531 -18.464844 L 9.296875 -18.464844 C 11.109375 -18.464844 12.421875 -18.273438 13.304688 -17.550781 C 14 -16.976562 14.410156 -16.03125 14.410156 -14.617188 C 14.410156 -13.144531 14.027344 -12.15625 13.351562 -11.492188 C 12.511719 -10.640625 11.15625 -10.359375 9.296875 -10.359375 L 5.894531 -10.359375 Z M 5.894531 -18.464844 "/></g></g></g><g fill="#304543" fill-opacity="1"><g transform="translate(279.780308, 212.434212)"><g><path d="M 7.5 0 L 10.152344 0 L 10.152344 -9.902344 L 16.976562 -20.746094 L 13.984375 -20.746094 L 8.828125 -12.273438 L 3.667969 -20.746094 L 0.664062 -20.746094 L 7.5 -9.871094 Z M 7.5 0 "/></g></g></g></svg>